<svg width="480" height="465" viewBox="0 0 480 465" fill="none" xmlns="http://www.w3.org/2000/svg">
<path fill-rule="evenodd" clip-rule="evenodd" d="M301.531 8.9023C280.707 -2.96745 255.165 -2.96743 234.341 8.90232L114.288 77.3337C87.7139 92.4808 86.7165 130.429 112.458 146.951L146.306 168.677C156.026 174.916 161.904 185.672 161.904 197.223L161.904 277.835C161.904 289.467 167.865 300.288 177.697 306.504L252.143 353.575C261.975 359.792 267.936 370.613 267.936 382.245V403.212C267.936 434.446 301.662 454.041 328.797 438.574L445.755 371.907C466.928 359.839 480.001 337.34 480.001 312.969V150.049C480.001 125.678 466.928 103.18 445.755 91.1111L301.531 8.9023ZM390.872 206.475C412.614 206.475 430.24 188.935 430.24 167.3C430.24 145.664 412.614 128.125 390.872 128.125C369.129 128.125 351.504 145.664 351.504 167.3C351.504 188.935 369.129 206.475 390.872 206.475Z" fill="#9966CC"/>
<path fill-rule="evenodd" clip-rule="evenodd" d="M49.544 250.166C58.2703 243.572 69.7146 241.776 80.0414 245.379L125.69 261.306C150.358 269.913 155.479 302.54 134.634 318.291L98.0906 345.905C89.3643 352.499 77.92 354.296 67.5932 350.693L21.945 334.766C-2.72344 326.158 -7.8447 293.531 13.0003 277.78L49.544 250.166ZM185.431 429.992C194.157 423.398 199.01 412.879 198.364 401.961L195.509 353.698C193.966 327.616 163.978 313.779 143.133 329.53L106.59 357.144C97.8633 363.738 93.0098 374.257 93.6558 385.175L96.5111 433.438C98.0541 459.52 128.042 473.357 148.887 457.606L185.431 429.992Z" fill="#9966CC"/>
</svg>
